<svg width="20" height="20" viewBox="0 0 20 20" fill="none" xmlns="http://www.w3.org/2000/svg">
<path d="M10.0258 12.6341L3.76275 18.9225C3.38593 19.2993 2.93713 19.4835 2.41635 19.475C1.89557 19.4666 1.44944 19.274 1.07795 18.8971C0.718041 18.5203 0.542319 18.0813 0.550786 17.5801C0.55923 17.0789 0.743408 16.6399 1.10332 16.2631L7.34099 10L1.07795 3.67831C0.718041 3.30149 0.538086 2.86247 0.538086 2.36127C0.538086 1.86007 0.718041 1.42106 1.07795 1.04424C1.44944 0.667441 1.89557 0.474809 2.41635 0.466342C2.93713 0.457898 3.38593 0.642075 3.76275 1.01888L10.0258 7.30727L16.2381 1.01888C16.6149 0.642075 17.0637 0.457898 17.5845 0.466342C18.1053 0.474809 18.5514 0.667441 18.9229 1.04424C19.2828 1.42106 19.4585 1.86007 19.4501 2.36127C19.4416 2.86247 19.2574 3.30149 18.8975 3.67831L12.6599 10L18.8975 16.2631C19.2574 16.623 19.4416 17.0578 19.4501 17.5674C19.4585 18.0771 19.2828 18.5203 18.9229 18.8971C18.5514 19.274 18.1053 19.4666 17.5845 19.475C17.0637 19.4835 16.6149 19.2993 16.2381 18.9225L10.0258 12.6341Z" fill="white"/>
</svg>
