<svg width="32" height="32" viewBox="0 0 32 32" fill="none" xmlns="http://www.w3.org/2000/svg">
<path d="M13.3333 25.3334C12.9556 25.3334 12.6389 25.2056 12.3833 24.95C12.1278 24.6945 12 24.3778 12 24C12 23.6223 12.1278 23.3056 12.3833 23.05C12.6389 22.7945 12.9556 22.6667 13.3333 22.6667H26.6667C27.0444 22.6667 27.3611 22.7945 27.6167 23.05C27.8722 23.3056 28 23.6223 28 24C28 24.3778 27.8722 24.6945 27.6167 24.95C27.3611 25.2056 27.0444 25.3334 26.6667 25.3334H13.3333ZM13.3333 17.3334C12.9556 17.3334 12.6389 17.2056 12.3833 16.95C12.1278 16.6945 12 16.3778 12 16C12 15.6223 12.1278 15.3056 12.3833 15.05C12.6389 14.7945 12.9556 14.6667 13.3333 14.6667H26.6667C27.0444 14.6667 27.3611 14.7945 27.6167 15.05C27.8722 15.3056 28 15.6223 28 16C28 16.3778 27.8722 16.6945 27.6167 16.95C27.3611 17.2056 27.0444 17.3334 26.6667 17.3334H13.3333ZM13.3333 9.33337C12.9556 9.33337 12.6389 9.2056 12.3833 8.95004C12.1278 8.69449 12 8.37782 12 8.00004C12 7.62226 12.1278 7.3056 12.3833 7.05004C12.6389 6.79449 12.9556 6.66671 13.3333 6.66671H26.6667C27.0444 6.66671 27.3611 6.79449 27.6167 7.05004C27.8722 7.3056 28 7.62226 28 8.00004C28 8.37782 27.8722 8.69449 27.6167 8.95004C27.3611 9.2056 27.0444 9.33337 26.6667 9.33337H13.3333ZM6.66667 26.6667C5.93333 26.6667 5.30556 26.4056 4.78333 25.8834C4.26111 25.3612 4 24.7334 4 24C4 23.2667 4.26111 22.6389 4.78333 22.1167C5.30556 21.5945 5.93333 21.3334 6.66667 21.3334C7.4 21.3334 8.02778 21.5945 8.55 22.1167C9.07222 22.6389 9.33333 23.2667 9.33333 24C9.33333 24.7334 9.07222 25.3612 8.55 25.8834C8.02778 26.4056 7.4 26.6667 6.66667 26.6667ZM6.66667 18.6667C5.93333 18.6667 5.30556 18.4056 4.78333 17.8834C4.26111 17.3612 4 16.7334 4 16C4 15.2667 4.26111 14.6389 4.78333 14.1167C5.30556 13.5945 5.93333 13.3334 6.66667 13.3334C7.4 13.3334 8.02778 13.5945 8.55 14.1167C9.07222 14.6389 9.33333 15.2667 9.33333 16C9.33333 16.7334 9.07222 17.3612 8.55 17.8834C8.02778 18.4056 7.4 18.6667 6.66667 18.6667ZM6.66667 10.6667C5.93333 10.6667 5.30556 10.4056 4.78333 9.88337C4.26111 9.36115 4 8.73337 4 8.00004C4 7.26671 4.26111 6.63893 4.78333 6.11671C5.30556 5.59449 5.93333 5.33337 6.66667 5.33337C7.4 5.33337 8.02778 5.59449 8.55 6.11671C9.07222 6.63893 9.33333 7.26671 9.33333 8.00004C9.33333 8.73337 9.07222 9.36115 8.55 9.88337C8.02778 10.4056 7.4 10.6667 6.66667 10.6667Z" fill="white"/>
</svg>
